<control>


default_path=Brass\F Horn\stac\


<global>




ampeg_attack=0.001


ampeg_release=3


ampeg_dynamic=1




volume=0




<group> //Begin Group 1




lorand=0.0 hirand=0.5


group_label=gr_1






<region>
sample=MOHorn_stac_A#1_v1_rr1.wav
lokey=45
hikey=47
pitch_keycenter=46
lovel=0
hivel=41
volume=20


<region>
sample=MOHorn_stac_A0_v1_rr1.wav
lokey=33
hikey=34
pitch_keycenter=33
lovel=0
hivel=127
volume=12


<region>
sample=MOHorn_stac_A2_v1_rr1.wav
lokey=55
hikey=58
pitch_keycenter=57
lovel=0
hivel=41
volume=20


<region>
sample=MOHorn_stac_C1_v1_rr1.wav
lokey=35
hikey=37
pitch_keycenter=36
lovel=0
hivel=62
volume=18


<region>
sample=MOHorn_stac_C3_v1_rr1.wav
lokey=59
hikey=66
pitch_keycenter=60
lovel=0
hivel=41
volume=20


<region>
sample=MOHorn_stac_D#1_v1_rr1.wav
lokey=38
hikey=40
pitch_keycenter=39
lovel=0
hivel=62
volume=18


<region>
sample=MOHorn_stac_D2_v1_rr1.wav
lokey=48
hikey=51
pitch_keycenter=50
lovel=0
hivel=41
volume=20


<region>
sample=MOHorn_stac_D4_v1_rr1.wav
lokey=67
hikey=75
pitch_keycenter=74
lovel=0
hivel=41
volume=20


<region>
sample=MOHorn_stac_F2_v1_rr1.wav
lokey=52
hikey=54
pitch_keycenter=53
lovel=0
hivel=41
volume=20


<region>
sample=MOHorn_stac_F4_v1_rr1.wav
lokey=76
hikey=77
pitch_keycenter=77
lovel=0
hivel=41
volume=20


<region>
sample=MOHorn_stac_G1_v1_rr1.wav
lokey=41
hikey=44
pitch_keycenter=43
lovel=0
hivel=62
volume=18


<region>
sample=MOHorn_stac_A#1_v2_rr1.wav
lokey=45
hikey=47
pitch_keycenter=46
lovel=42
hivel=83
volume=12


<region>
sample=MOHorn_stac_A2_v2_rr1.wav
lokey=55
hikey=58
pitch_keycenter=57
lovel=42
hivel=83
volume=12


<region>
sample=MOHorn_stac_C1_v2_rr1.wav
lokey=35
hikey=37
pitch_keycenter=36
lovel=63
hivel=127
volume=6


<region>
sample=MOHorn_stac_C3_v2_rr1.wav
lokey=59
hikey=66
pitch_keycenter=60
lovel=42
hivel=83
volume=12


<region>
sample=MOHorn_stac_D#1_v2_rr1.wav
lokey=38
hikey=40
pitch_keycenter=39
lovel=63
hivel=127
volume=6


<region>
sample=MOHorn_stac_D2_v2_rr1.wav
lokey=48
hikey=51
pitch_keycenter=50
lovel=42
hivel=83
volume=12


<region>
sample=MOHorn_stac_D4_v2_rr1.wav
lokey=67
hikey=75
pitch_keycenter=74
lovel=42
hivel=83
volume=0


<region>
sample=MOHorn_stac_F2_v2_rr1.wav
lokey=52
hikey=54
pitch_keycenter=53
lovel=42
hivel=83
volume=12


<region>
sample=MOHorn_stac_F4_v2_rr1.wav
lokey=76
hikey=77
pitch_keycenter=77
lovel=42
hivel=83
volume=7


<region>
sample=MOHorn_stac_G1_v2_rr1.wav
lokey=41
hikey=44
pitch_keycenter=43
lovel=63
hivel=127
volume=6


<region>
sample=MOHorn_stac_A#1_v3_rr1.wav
lokey=45
hikey=47
pitch_keycenter=46
lovel=84
hivel=127
volume=4


<region>
sample=MOHorn_stac_A2_v3_rr1.wav
lokey=55
hikey=58
pitch_keycenter=57
lovel=84
hivel=127
volume=4


<region>
sample=MOHorn_stac_C3_v3_rr1.wav
lokey=59
hikey=66
pitch_keycenter=60
lovel=84
hivel=127
volume=4


<region>
sample=MOHorn_stac_D2_v3_rr1.wav
lokey=48
hikey=51
pitch_keycenter=50
lovel=84
hivel=127
volume=4


<region>
sample=MOHorn_stac_D4_v3_rr1.wav
lokey=67
hikey=75
pitch_keycenter=74
lovel=84
hivel=127
volume=0


<region>
sample=MOHorn_stac_F2_v3_rr1.wav
lokey=52
hikey=54
pitch_keycenter=53
lovel=84
hivel=127
volume=4


<region>
sample=MOHorn_stac_F4_v3_rr1.wav
lokey=76
hikey=77
pitch_keycenter=77
lovel=84
hivel=127
volume=0


<group> //Begin Group 2




lorand=0.5 hirand=1.0


group_label=gr_2






<region>
sample=MOHorn_stac_A#1_v1_rr1.wav
lokey=45
hikey=47
pitch_keycenter=46
lovel=0
hivel=41
volume=20


<region>
sample=MOHorn_stac_A0_v1_rr2.wav
lokey=33
hikey=34
pitch_keycenter=33
lovel=0
hivel=127
volume=12


<region>
sample=MOHorn_stac_A2_v1_rr2.wav
lokey=55
hikey=58
pitch_keycenter=57
lovel=0
hivel=41
volume=20


<region>
sample=MOHorn_stac_C1_v1_rr2.wav
lokey=35
hikey=37
pitch_keycenter=36
lovel=0
hivel=62
volume=18


<region>
sample=MOHorn_stac_C3_v1_rr2.wav
lokey=59
hikey=66
pitch_keycenter=60
lovel=0
hivel=41
volume=20


<region>
sample=MOHorn_stac_D#1_v1_rr2.wav
lokey=38
hikey=40
pitch_keycenter=39
lovel=0
hivel=62
volume=18


<region>
sample=MOHorn_stac_D2_v1_rr2.wav
lokey=48
hikey=51
pitch_keycenter=50
lovel=0
hivel=41
volume=20


<region>
sample=MOHorn_stac_D4_v1_rr2.wav
lokey=67
hikey=75
pitch_keycenter=74
lovel=0
hivel=41
volume=20


<region>
sample=MOHorn_stac_F2_v1_rr2.wav
lokey=52
hikey=54
pitch_keycenter=53
lovel=0
hivel=41
volume=20


<region>
sample=MOHorn_stac_F4_v1_rr2.wav
lokey=76
hikey=77
pitch_keycenter=77
lovel=0
hivel=62
volume=0


<region>
sample=MOHorn_stac_G1_v1_rr2.wav
lokey=41
hikey=44
pitch_keycenter=43
lovel=0
hivel=62
volume=18


<region>
sample=MOHorn_stac_A#1_v2_rr2.wav
lokey=45
hikey=47
pitch_keycenter=46
lovel=42
hivel=83
volume=12


<region>
sample=MOHorn_stac_A2_v2_rr2.wav
lokey=55
hikey=58
pitch_keycenter=57
lovel=42
hivel=83
volume=12


<region>
sample=MOHorn_stac_C1_v2_rr2.wav
lokey=35
hikey=37
pitch_keycenter=36
lovel=63
hivel=127
volume=6


<region>
sample=MOHorn_stac_C3_v2_rr2.wav
lokey=59
hikey=66
pitch_keycenter=60
lovel=42
hivel=83
volume=12


<region>
sample=MOHorn_stac_D#1_v2_rr2.wav
lokey=38
hikey=40
pitch_keycenter=39
lovel=63
hivel=127
volume=6


<region>
sample=MOHorn_stac_D2_v2_rr2.wav
lokey=48
hikey=51
pitch_keycenter=50
lovel=42
hivel=83
volume=12


<region>
sample=MOHorn_stac_D4_v2_rr2.wav
lokey=67
hikey=75
pitch_keycenter=74
lovel=42
hivel=83
volume=12


<region>
sample=MOHorn_stac_F2_v2_rr2.wav
lokey=52
hikey=54
pitch_keycenter=53
lovel=42
hivel=83
volume=12


<region>
sample=MOHorn_stac_F4_v2_rr2.wav
lokey=76
hikey=77
pitch_keycenter=77
lovel=63
hivel=127
volume=4


<region>
sample=MOHorn_stac_G1_v2_rr2.wav
lokey=41
hikey=44
pitch_keycenter=43
lovel=63
hivel=127
volume=6


<region>
sample=MOHorn_stac_A#1_v3_rr2.wav
lokey=45
hikey=47
pitch_keycenter=46
lovel=84
hivel=127
volume=4


<region>
sample=MOHorn_stac_A2_v3_rr2.wav
lokey=55
hikey=58
pitch_keycenter=57
lovel=84
hivel=127
volume=4


<region>
sample=MOHorn_stac_C3_v3_rr2.wav
lokey=59
hikey=66
pitch_keycenter=60
lovel=84
hivel=127
volume=4


<region>
sample=MOHorn_stac_D2_v3_rr2.wav
lokey=48
hikey=51
pitch_keycenter=50
lovel=84
hivel=127
volume=4


<region>
sample=MOHorn_stac_D4_v3_rr2.wav
lokey=67
hikey=75
pitch_keycenter=74
lovel=84
hivel=127
volume=4


<region>
sample=MOHorn_stac_F2_v3_rr2.wav
lokey=52
hikey=54
pitch_keycenter=53
lovel=84
hivel=127
volume=4


